<svg width="350" viewBox="0 0 462 55" fill="none" xmlns="http://www.w3.org/2000/svg">
<path fill-rule="evenodd" clip-rule="evenodd" d="M0 15C-3.01334e-06 9.99988 5.5 3.99988 11 4C16.5 4.00012 51 4 51 4V47C51 51.9999 47 55 42 55H0V15ZM36 15V23C27.1772 21.0107 22.5 21.3083 22.5 30C22.5 38.6917 27.2922 39.7814 36 38V45.5C31.5 47 25.5 47.08 22.5 46C10 41.5 8 19 22.5 15C22.5 15 26 13.5 36 15Z" fill="#333333"/>
<path d="M93.5243 11.39C96.1043 11.39 98.5343 11.795 100.814 12.605L99.2843 19.76L98.6993 20.12C97.9193 19.7 97.0193 19.37 95.9993 19.13C94.9793 18.86 94.0343 18.725 93.1643 18.725C91.3343 18.725 90.0143 19.265 89.2043 20.345C88.3943 21.395 87.9893 23.165 87.9893 25.655C87.9893 28.565 88.4543 30.695 89.3843 32.045C90.3143 33.365 91.7693 34.025 93.7493 34.025C94.5893 34.025 95.5193 33.95 96.5393 33.8C97.5893 33.62 98.5043 33.38 99.2843 33.08L100.004 33.53L99.2843 40.64C97.4843 41.21 95.3993 41.495 93.0293 41.495C88.1993 41.495 84.5543 40.235 82.0943 37.715C79.6643 35.195 78.4493 31.52 78.4493 26.69C78.4493 21.83 79.7543 18.065 82.3643 15.395C85.0043 12.725 88.7243 11.39 93.5243 11.39ZM120.625 41L120.13 37.805L116.71 37.715L114.01 37.85L113.515 41H105.37L112.525 17.915H122.605L129.085 41H120.625ZM117.205 31.775L118.96 31.73L117.655 25.295H117.16L115.45 31.73L117.205 31.775ZM157.988 33.44L158.303 41H149.933L150.338 34.295L150.293 32.99L146.693 32.9L143.543 32.99V33.44L143.903 41H135.533L135.938 34.295L135.533 17.915H144.038L143.768 26.24L147.143 26.33L150.158 26.24L149.933 17.915H158.438L157.988 33.44ZM184.374 18.5L183.924 24.575L178.839 24.305H178.704L178.524 33.44L178.839 41H170.514L170.919 34.295L170.739 24.305H170.559L165.429 24.575L164.934 23.99L165.384 17.915H183.924L184.374 18.5ZM208.476 34.385L208.926 34.925L208.431 41H190.566L190.971 34.295L190.566 17.915H208.746L209.196 18.5L208.701 24.575L202.626 24.305H198.846L198.801 26.285H202.401L206.316 26.15L206.766 26.735L206.271 32.81L201.861 32.675H198.621L198.576 33.44L198.621 34.61H202.176L208.476 34.385ZM232.736 28.76L239.936 41H229.991L228.686 37.895L227.066 35.33L224.771 38.345L223.511 41H215.096L222.206 30.065L214.781 17.915H224.771L226.121 21.11L227.786 23.72L229.766 20.615L230.936 17.915H239.576L232.736 28.76ZM253.7 26.33L253.745 31.73L243.17 33.44L242.54 32.81V27.41L253.07 25.7L253.7 26.33ZM291.493 33.71V47.165L284.968 47.615L283.843 41H267.193L266.158 47.165L259.498 47.615V33.71H261.793C263.173 33.17 264.223 32.39 264.943 31.37C265.693 30.35 266.293 28.85 266.743 26.87C267.223 24.89 267.688 21.965 268.138 18.095L268.858 11.885H287.938L287.443 31.55L287.533 33.71H291.493ZM279.163 33.71L279.208 32.45L278.893 18.545H275.968L275.833 19.76C275.353 23.66 274.798 26.675 274.168 28.805C273.568 30.935 272.773 32.57 271.783 33.71H279.163ZM298.841 34.25L298.436 18.095L306.896 17.69L306.311 28.67H306.806L312.791 17.915H321.656L321.206 33.44L321.521 41H313.196L313.601 34.25L313.646 30.155H313.196L307.166 41H298.436L298.841 34.25ZM341.735 17.51C343.865 17.51 345.89 17.75 347.81 18.23L346.415 24.845L345.875 25.205C345.275 24.935 344.555 24.71 343.715 24.53C342.875 24.35 342.11 24.26 341.42 24.26C340.04 24.26 339.05 24.59 338.45 25.25C337.88 25.91 337.595 27.065 337.595 28.715C337.595 30.785 337.94 32.285 338.63 33.215C339.35 34.115 340.475 34.565 342.005 34.565C342.635 34.565 343.37 34.52 344.21 34.43C345.05 34.34 345.77 34.235 346.37 34.115L347.045 34.52L346.37 41.09C345.02 41.33 343.34 41.45 341.33 41.45C337.13 41.45 333.98 40.46 331.88 38.48C329.81 36.47 328.775 33.545 328.775 29.705C328.775 25.835 329.9 22.835 332.15 20.705C334.4 18.575 337.595 17.51 341.735 17.51ZM370.533 28.85C372.783 32.3 375.288 35.765 378.048 39.245L377.913 40.145C375.003 40.805 372.228 41.24 369.588 41.45L368.643 40.955C366.543 37.235 364.698 33.875 363.108 30.875L363.018 33.44L363.378 41H355.008L355.413 34.295L355.008 17.915H363.513L363.198 27.185L367.248 20.57L368.508 17.915H377.283L370.533 28.85ZM394.56 17.465C398.16 17.465 400.935 18.455 402.885 20.435C404.865 22.415 405.855 25.22 405.855 28.85C405.855 32.87 404.76 35.99 402.57 38.21C400.41 40.4 397.35 41.495 393.39 41.495C389.79 41.495 387 40.49 385.02 38.48C383.07 36.44 382.095 33.59 382.095 29.93C382.095 25.97 383.175 22.91 385.335 20.75C387.525 18.56 390.6 17.465 394.56 17.465ZM393.795 24.08C392.955 24.08 392.325 24.2 391.905 24.44C391.515 24.65 391.23 25.085 391.05 25.745C390.9 26.405 390.825 27.425 390.825 28.805C390.825 30.695 390.915 32.09 391.095 32.99C391.275 33.89 391.59 34.505 392.04 34.835C392.49 35.165 393.195 35.33 394.155 35.33C395.025 35.33 395.655 35.225 396.045 35.015C396.465 34.775 396.75 34.34 396.9 33.71C397.05 33.05 397.125 32.03 397.125 30.65C397.125 28.73 397.035 27.32 396.855 26.42C396.705 25.52 396.39 24.905 395.91 24.575C395.46 24.245 394.755 24.08 393.795 24.08ZM435.002 33.44L435.317 41H426.947L427.352 34.295L427.307 32.99L423.707 32.9L420.557 32.99V33.44L420.917 41H412.547L412.952 34.295L412.547 17.915H421.052L420.782 26.24L424.157 26.33L427.172 26.24L426.947 17.915H435.452L435.002 33.44ZM461.387 18.5L460.937 24.575L455.852 24.305H455.717L455.537 33.44L455.852 41H447.527L447.932 34.295L447.752 24.305H447.572L442.442 24.575L441.947 23.99L442.397 17.915H460.937L461.387 18.5Z" fill="#333333"/>
</svg>
